<svg version="1.2" xmlns="http://www.w3.org/2000/svg" viewBox="0 0 604 130" width="604" height="130">
	<title>Logo Ici</title>
	<style>
		tspan { white-space:pre } 
		.s0 { fill: #000000 } 
		.s1 { fill: #0064f5 } 
		.s2 { fill: #001ed2 } 
	</style>
	<path id="Normandie" fill-rule="evenodd" class="s0" d="m360.8 129h-3.8l-23-28.1v28.1h-5.5v-38.3h3.9l23 28.1v-28.1h5.4zm10.2-3.3q-3.8-3.8-3.8-9.6 0-5.7 3.8-9.6 3.8-3.8 9.5-3.8 5.7 0 9.5 3.8 3.8 3.9 3.8 9.6 0 5.8-3.8 9.6-3.8 3.8-9.5 3.8-5.7 0-9.5-3.8zm3.7-15.6q-2.3 2.5-2.3 6 0 3.6 2.3 6 2.3 2.5 5.8 2.5 3.5 0 5.8-2.5 2.3-2.4 2.3-6 0-3.5-2.3-6-2.3-2.5-5.8-2.5-3.5 0-5.8 2.5zm39.9-7v4.9q-0.9-0.2-1.8-0.2-2.3 0-4.3 1.1-2 1.2-3.2 3.2v16.9h-5.2v-25.8h5v3.1q1.1-1.4 3.1-2.3 2-1 4.6-1 1 0 1.8 0.1zm5 25.9v-25.8h5.1v2.5q0.9-1 3-2 2.2-1 4.5-1 5.5 0 9.1 4.3 4.3-4.3 9.8-4.3 5.7 0 9.1 4.3 2.4 2.9 2.4 8.8v13.2h-5.2v-14q0-3.4-1.5-5.1-1.8-2.3-4.8-2.3-4.3 0-7.8 3.7 0.4 2 0.4 4.5v13.2h-5.2v-14q0-3.4-1.5-5.1-1.8-2.3-4.9-2.3-4.2 0-7.3 3.7v17.7zm74.8 0h-5.1v-2.4q-3.2 2.9-7.9 2.9-3.6 0-6.5-1.7-3-1.7-4.8-4.8-1.7-3.1-1.7-6.9 0-3.8 1.8-6.9 1.8-3.1 4.8-4.9 2.8-1.6 6.3-1.6 4.6 0 8 2.9v-2.4h5.1zm-5.2-8v-9.6q-2.8-3.7-7.4-3.7-3.6 0-5.9 2.5-2.3 2.5-2.3 6 0 3.5 2.4 6 2.4 2.5 6.1 2.5 4.3 0 7.1-3.7zm13.3-17.7h5v2.5q3.2-3 7.8-3 5.8 0 9.3 4.5 2.5 3.2 2.5 9.2v12.5h-5.2v-12.8q0-4.1-1.5-6-2-2.5-5.3-2.5-4.4 0-7.4 3.7v17.6h-5.2zm56.4 25.8h-5v-2.4q-3.3 2.9-8 2.9-3.6 0-6.4-1.7-3-1.7-4.9-4.8-1.7-3.1-1.7-6.9 0-3.8 1.8-6.9 1.8-3.1 4.8-4.9 2.8-1.6 6.3-1.6 4.6 0 7.9 2.8v-15.4h5.2zm-5.2-8v-9.7q-2.8-3.6-7.3-3.6-3.7 0-6 2.5-2.3 2.4-2.3 5.9 0 3.5 2.4 6.1 2.5 2.4 6.1 2.4 4.4 0 7.1-3.6zm18.6 8h-5.2v-25.7h5.2zm-5.1-32.5q-1-1-1-2.4 0-1.4 1-2.4 1-1 2.4-1 1.5 0 2.4 1 1.1 1 1.1 2.4 0 1.4-1.1 2.4-0.9 1-2.4 1-1.4 0-2.4-1zm36.2 20.7h-19.9q0.3 3.3 2.5 5.5 2.2 2.2 5.6 2.2 4.3 0 7.7-3.4l3.1 3.2q-4.2 4.8-11 4.8-5.7 0-9.3-3.8-3.5-3.8-3.5-9.6 0-5.8 3.5-9.6 3.6-3.8 9.2-3.8 5.3 0 8.7 3.8 3.5 3.9 3.5 9.6 0 0.6-0.1 1.1zm-12.1-10q-2.6 0-4.6 1.6-2 1.6-2.7 4h14q-0.5-2.4-2.5-4-1.9-1.6-4.2-1.6z"/>
	<g id="ici">
		<path fill-rule="evenodd" class="s0" d="m170.1 0.7v23.8h-26.2v-23.8zm22.5 115.2c-8.7-8.7-13-20.5-13-35.5 0-14.8 4.5-26.6 13.4-35.4 8.9-8.9 20.8-13.3 35.9-13.3 12.6 0 23 3.2 30.9 9.8 7.9 6.5 12.7 15.4 14.6 26.9h-27.1c-2.2-9.7-8.8-15.4-18.8-15.4-6.7 0-12.2 2.6-16.2 7.6-4 5.1-6.1 11.7-6.1 19.8 0 8.1 2.1 14.8 6.1 19.8q1.4 1.8 3.3 3.2 1.8 1.5 3.9 2.5 2.1 1 4.4 1.4 2.3 0.5 4.6 0.5c10.1 0 17-6 18.8-15.7h27.3c-1.9 11.4-6.9 20.4-15 27-8.3 6.6-18.8 9.9-31.6 9.9-15.1 0-26.9-4.3-35.4-13.1zm-48.7-83.1h26.2v95.1h-26.2zm139.2 0h26.2v95.1h-26.2v-95.1zm26.1-32.1v23.8h-26.2v-23.8z"/>
		<path class="s1" d="m64 129.4c-35.4 0-64-28.7-64-64.3 0-35.5 28.6-64.2 64-64.2 35.4 0 64 28.7 64 64.2 0 35.6-28.6 64.3-64 64.3z"/>
		<path class="s0" d="m64 65.1v64.3h-64v-64.3z"/>
		<path fill-rule="evenodd" class="s2" d="m63.9 129.4h0.1v-64.3h-64c0 35.5 28.6 64.2 63.9 64.3z"/>
	</g>
</svg>